# xmcd
#
# Track frame offsets: 
#        150
#        17030
#        35205
#        58220
#        87277
#        103842
#        127767
#        148100
#        164420
#        187100
#        204055
#        230192
#
# Disc length: 3343 seconds
#
# Revision: 0
# Processed by: cddbd v1.5PL3 Copyright (c) Steve Scherf et al.
# Submitted via: ExactAudioCopy v0.95a4
#
DISCID=ad0d0d0c
DTITLE=The Sidemen - Dig In
DYEAR=1999
DGENRE=Blues
TTITLE0=Seven Angels
TTITLE1=Inside Information
TTITLE2=You will Know
TTITLE3=Bye Bye, So Long
TTITLE4=Night Came Down
TTITLE5=That Train
TTITLE6=Bad Axe (Part II)
TTITLE7=Goin' Downtown
TTITLE8=When You Call
TTITLE9=It's Alrigh
TTITLE10=Drivin' Dog
TTITLE11=You Gonna Need My Help
EXTD=
EXTT0=
EXTT1=
EXTT2=
EXTT3=
EXTT4=
EXTT5=
EXTT6=
EXTT7=
EXTT8=
EXTT9=
EXTT10=
EXTT11=
PLAYORDER=
